<svg width="1059" height="51" viewBox="0 0 1059 51" fill="none" xmlns="http://www.w3.org/2000/svg">
<g clip-path="url(#clip0_43_11)">
<path d="M192.953 23.8756V20.4384H188.739V15.0953L188.597 15.1396L184.639 16.366L184.561 16.39V20.4388H178.314V18.1838C178.314 17.1338 178.546 16.3297 179.003 15.7936C179.456 15.264 180.105 14.9949 180.933 14.9949C181.528 14.9949 182.144 15.1369 182.764 15.4172L182.92 15.487V11.8674L182.847 11.8403C182.268 11.6295 181.481 11.5234 180.506 11.5234C179.277 11.5234 178.16 11.7945 177.186 12.3313C176.212 12.8689 175.445 13.6364 174.908 14.6127C174.373 15.5874 174.102 16.7134 174.102 17.9593V20.4388H171.167V23.876H174.102V38.3556H178.314V23.8756H184.561V33.0774C184.561 36.8673 186.326 38.7882 189.806 38.7882C190.378 38.7882 190.98 38.7199 191.595 38.587C192.221 38.4507 192.646 38.3144 192.897 38.1686L192.953 38.1357V34.6665L192.781 34.7811C192.553 34.9361 192.268 35.0617 191.934 35.1552C191.599 35.2507 191.319 35.2988 191.102 35.2988C190.287 35.2988 189.684 35.0762 189.309 34.6371C188.93 34.1942 188.739 33.4191 188.739 32.3348V23.8756H192.953ZM161.76 35.2996C160.232 35.2996 159.026 34.7856 158.177 33.7742C157.322 32.7574 156.889 31.308 156.889 29.4665C156.889 27.567 157.322 26.0798 158.177 25.0451C159.027 24.0172 160.221 23.4957 161.726 23.4957C163.187 23.4957 164.35 23.9939 165.182 24.9771C166.019 25.966 166.444 27.441 166.444 29.3631C166.444 31.3084 166.044 32.8032 165.257 33.8028C164.474 34.7952 163.298 35.2996 161.76 35.2996ZM161.948 20.007C159.031 20.007 156.714 20.8726 155.063 22.5801C153.412 24.2879 152.575 26.6506 152.575 29.6044C152.575 32.4096 153.392 34.6661 155.004 36.3099C156.615 37.9547 158.808 38.7879 161.521 38.7879C164.349 38.7879 166.62 37.9097 168.271 36.1789C169.922 34.4493 170.758 32.1087 170.758 29.2241C170.758 26.375 169.973 24.1016 168.425 22.4686C166.875 20.8352 164.696 20.007 161.948 20.007ZM145.783 20.007C143.799 20.007 142.158 20.5209 140.904 21.5343C139.643 22.5537 139.003 23.8912 139.003 25.5094C139.003 26.3505 139.141 27.0977 139.413 27.7316C139.686 28.3673 140.11 28.927 140.672 29.397C141.23 29.8629 142.091 30.3512 143.232 30.848C144.191 31.2477 144.907 31.586 145.361 31.8525C145.806 32.1137 146.121 32.3764 146.299 32.6322C146.472 32.8823 146.56 33.2248 146.56 33.6478C146.56 34.8517 145.67 35.437 143.839 35.437C143.16 35.437 142.385 35.2938 141.536 35.0105C140.693 34.7314 139.898 34.3228 139.178 33.799L139.003 33.6723V37.7799L139.067 37.8104C139.663 38.0891 140.415 38.3236 141.3 38.5088C142.185 38.6939 142.987 38.7882 143.685 38.7882C145.838 38.7882 147.572 38.2716 148.837 37.2518C150.11 36.2255 150.756 34.8567 150.756 33.182C150.756 31.9743 150.408 30.9388 149.724 30.1034C149.044 29.2749 147.864 28.5143 146.217 27.8419C144.906 27.3089 144.066 26.8664 143.719 26.5265C143.385 26.1982 143.215 25.7343 143.215 25.1466C143.215 24.6255 143.425 24.2081 143.855 23.8698C144.288 23.53 144.891 23.3571 145.647 23.3571C146.349 23.3571 147.067 23.4693 147.781 23.6892C148.495 23.9096 149.122 24.2043 149.645 24.5648L149.817 24.6839V20.7874L149.751 20.7584C149.268 20.5488 148.632 20.3697 147.858 20.2239C147.089 20.0799 146.391 20.007 145.783 20.007ZM128.022 35.2992C126.493 35.2992 125.288 34.7856 124.438 33.7742C123.583 32.7574 123.151 31.3084 123.151 29.4665C123.151 27.567 123.584 26.0798 124.439 25.0451C125.288 24.0172 126.482 23.4957 127.988 23.4957C129.448 23.4957 130.611 23.9939 131.444 24.9771C132.28 25.966 132.705 27.441 132.705 29.3631C132.705 31.3084 132.306 32.8032 131.518 33.8028C130.736 34.7952 129.56 35.2996 128.022 35.2996V35.2992ZM128.21 20.007C125.292 20.007 122.975 20.8726 121.324 22.5801C119.674 24.2879 118.836 26.6506 118.836 29.6044C118.836 32.4107 119.654 34.6661 121.265 36.3099C122.877 37.9547 125.07 38.7879 127.783 38.7879C130.61 38.7879 132.881 37.9097 134.532 36.1789C136.183 34.4493 137.02 32.1087 137.02 29.2241C137.02 26.375 136.235 24.1016 134.686 22.4686C133.136 20.8352 130.957 20.007 128.21 20.007H128.21ZM112.442 23.5415V20.4384H108.281V38.3556H112.442V29.1905C112.442 27.6319 112.791 26.3517 113.479 25.3845C114.159 24.4288 115.064 23.9451 116.17 23.9451C116.545 23.9451 116.966 24.0073 117.421 24.1314C117.872 24.2543 118.199 24.388 118.392 24.5285L118.566 24.6568V20.4079L118.499 20.3785C118.111 20.2116 117.563 20.1276 116.869 20.1276C115.824 20.1276 114.888 20.4678 114.087 21.1379C113.383 21.7267 112.875 22.5342 112.486 23.5415H112.442H112.442ZM100.83 20.007C98.9208 20.007 97.2181 20.4216 95.7695 21.2387C94.3182 22.0577 93.1961 23.2276 92.4327 24.7148C91.6724 26.1986 91.2868 27.9312 91.2868 29.864C91.2868 31.5566 91.6607 33.1102 92.4003 34.4794C93.1403 35.8509 94.1882 36.9238 95.5139 37.6676C96.8382 38.411 98.3682 38.7882 100.063 38.7882C102.04 38.7882 103.729 38.3873 105.082 37.5981L105.137 37.566V33.7047L104.962 33.8342C104.339 34.2914 103.653 34.6532 102.926 34.9078C102.191 35.1675 101.52 35.2992 100.932 35.2992C99.3001 35.2992 97.9894 34.7814 97.0376 33.7616C96.0839 32.7399 95.6006 31.3058 95.6006 29.5005C95.6006 27.6842 96.105 26.2131 97.0987 25.1272C98.0889 24.0451 99.4018 23.496 101.001 23.496C102.369 23.496 103.701 23.9649 104.962 24.8916L105.137 25.0199V20.9516L105.08 20.9192C104.606 20.6504 103.959 20.4281 103.155 20.2598C102.356 20.0918 101.573 20.007 100.829 20.007H100.83ZM88.4204 20.4384H84.2596V38.3556H88.4208V20.4388L88.4204 20.4384ZM86.3826 12.8059C85.6981 12.8059 85.101 13.0419 84.6098 13.51C84.1171 13.9796 83.8672 14.5703 83.8672 15.2675C83.8672 15.9536 84.1141 16.5336 84.6023 16.9902C85.087 17.4458 85.686 17.6768 86.3826 17.6768C87.0792 17.6768 87.6805 17.4458 88.1713 16.991C88.6651 16.5336 88.9158 15.9536 88.9158 15.2675C88.9158 14.5943 88.6719 14.0094 88.1916 13.5287C87.7118 13.0491 87.1034 12.8059 86.3826 12.8059ZM76.0013 19.1166V38.3556H80.2473V13.3546H74.3706L66.9002 31.9243L59.6506 13.3546H53.5342V38.3556H57.5246V19.1147H57.6618L65.317 38.3553H68.3285L75.8638 19.1166H76.001H76.0013Z" fill="white" fill-opacity="0.2"/>
<path d="M19.574 24.8267H0V5H19.574V24.8267Z" fill="white" fill-opacity="0.2"/>
<path d="M41.1859 24.8267H21.6122V5H41.1859V24.8267Z" fill="white" fill-opacity="0.2"/>
<path d="M19.5733 46.7251H0V26.8988H19.5733V46.7251Z" fill="white" fill-opacity="0.2"/>
<path d="M41.1859 46.7251H21.6122V26.8988H41.1859V46.7251Z" fill="white" fill-opacity="0.2"/>
</g>
<g clip-path="url(#clip1_43_11)">
<path d="M625.986 39.4028L628.407 33.8112C631.022 35.7527 634.496 36.7625 637.931 36.7625C640.468 36.7625 642.068 35.7915 642.068 34.3162C642.029 30.2002 626.884 33.4229 626.767 23.0941C626.728 17.8522 631.412 13.8139 638.048 13.8139C641.99 13.8139 645.933 14.7845 648.743 16.9977L646.479 22.7059C643.903 21.0749 640.702 19.9102 637.658 19.9102C635.589 19.9102 634.223 20.8808 634.223 22.1235C634.262 26.1619 649.524 23.9486 649.68 33.8112C649.68 39.1699 645.113 42.9365 638.556 42.9365C633.754 42.9365 629.343 41.8102 625.986 39.4028ZM718.849 31.792L725.524 35.4809C723.025 39.9463 718.263 42.9365 712.759 42.9365C704.679 42.9365 698.121 36.4131 698.121 28.3752C698.121 20.3373 704.679 13.8139 712.759 13.8139C718.224 13.8139 723.025 16.8425 725.524 21.2694L718.849 24.958C717.639 22.8612 715.375 21.4247 712.759 21.4247C708.895 21.4247 705.772 24.5309 705.772 28.3752C705.772 32.2194 708.895 35.3256 712.759 35.3256C715.375 35.3256 717.639 33.8888 718.848 31.792H718.849ZM653.037 1.73764H661.39V42.3926H653.037V1.73764ZM728.802 1.73764H737.156V25.618L746.602 14.3962H756.829L745.158 27.9089L757.766 42.3926H747.071L737.156 30.2002V42.3926H728.802V1.73764ZM686.216 31.87V24.9968C685.006 22.9776 682.508 21.4247 679.698 21.4247C675.833 21.4247 672.711 24.5309 672.711 28.3752C672.711 32.2194 675.833 35.3256 679.698 35.3256C682.508 35.3256 685.006 33.85 686.216 31.8696V31.87ZM686.216 14.3966H694.57V42.3541H686.216V39.0538C684.85 41.3447 681.454 42.9368 677.902 42.9368C670.563 42.9368 664.786 36.4134 664.786 28.3367C664.786 20.26 670.563 13.8143 677.902 13.8143C681.454 13.8143 684.85 15.4064 686.216 17.6973V14.3958V14.3966Z" fill="white" fill-opacity="0.2"/>
<path d="M574.344 31.8308C574.344 34.6652 572.041 36.9566 569.191 36.9566C568.515 36.9572 567.844 36.8251 567.219 36.5677C566.593 36.3103 566.025 35.9328 565.547 35.4567C565.068 34.9806 564.689 34.4152 564.43 33.7931C564.171 33.1709 564.038 32.5041 564.039 31.8308C564.039 28.9963 566.342 26.7054 569.191 26.7054H574.344V31.8308ZM576.92 31.8308C576.92 28.9963 579.223 26.7054 582.073 26.7054C584.922 26.7054 587.226 28.9963 587.226 31.8308V44.6447C587.226 47.4791 584.923 49.7704 582.073 49.7704C581.396 49.771 580.726 49.6389 580.1 49.3815C579.475 49.1241 578.907 48.7465 578.428 48.2704C577.95 47.7943 577.57 47.229 577.312 46.6069C577.053 45.9847 576.92 45.3179 576.921 44.6447V31.8308H576.92Z" fill="white" fill-opacity="0.2"/>
<path d="M582.073 11.2512C581.396 11.2518 580.726 11.1196 580.1 10.8622C579.475 10.6048 578.907 10.2273 578.428 9.75115C577.95 9.27505 577.57 8.70975 577.311 8.0876C577.053 7.46544 576.92 6.79866 576.921 6.1254C576.92 3.29094 579.223 1 582.073 1C584.922 1 587.225 3.29094 587.225 6.1254V11.2512H582.073ZM582.073 13.8527C584.922 13.8527 587.225 16.1436 587.225 18.9781C587.225 21.8126 584.922 24.1039 582.073 24.1039H569.152C568.476 24.1045 567.805 23.9724 567.18 23.715C566.554 23.4576 565.986 23.0801 565.508 22.604C565.029 22.1279 564.649 21.5626 564.391 20.9404C564.132 20.3182 563.999 19.6514 564 18.9781C564 16.1436 566.303 13.8531 569.152 13.8531H582.073L582.073 13.8527Z" fill="white" fill-opacity="0.2"/>
<path d="M602.722 18.9781C602.722 16.1436 605.025 13.8527 607.874 13.8527C610.724 13.8527 613.027 16.1436 613.027 18.9781C613.027 21.8126 610.724 24.1039 607.874 24.1039H602.722V18.9781ZM600.145 18.9781C600.145 21.8126 597.843 24.1039 594.993 24.1039C594.316 24.1045 593.646 23.9724 593.02 23.715C592.395 23.4576 591.827 23.0801 591.348 22.604C590.87 22.1279 590.49 21.5626 590.231 20.9404C589.973 20.3182 589.84 19.6514 589.841 18.9781V6.1254C589.841 3.29094 592.144 1 594.993 1C597.842 1 600.146 3.29094 600.146 6.1254V18.9785L600.145 18.9781Z" fill="white" fill-opacity="0.2"/>
<path d="M594.993 39.5193C597.842 39.5193 600.146 41.8102 600.146 44.6447C600.146 47.4791 597.843 49.7704 594.993 49.7704C594.316 49.7711 593.646 49.6389 593.02 49.3816C592.395 49.1242 591.827 48.7467 591.348 48.2706C590.87 47.7944 590.49 47.2291 590.231 46.6069C589.973 45.9848 589.84 45.318 589.841 44.6447V39.5193H594.993ZM594.993 36.9562C594.316 36.9568 593.646 36.8247 593.02 36.5674C592.395 36.31 591.827 35.9325 591.348 35.4564C590.87 34.9804 590.49 34.4151 590.231 33.793C589.973 33.1708 589.84 32.504 589.841 31.8308C589.841 28.9963 592.144 26.7054 594.993 26.7054H607.914C610.763 26.7054 613.066 28.9963 613.066 31.8308C613.066 34.6652 610.763 36.9566 607.913 36.9566H594.993V36.9562Z" fill="white" fill-opacity="0.2"/>
</g>
<g clip-path="url(#clip2_43_11)">
<path d="M452.11 31.1682L456.466 34.0427C455.052 36.104 451.671 39.6406 445.825 39.6406C438.567 39.6406 433.161 34.0807 433.161 27.0078C433.161 19.4813 438.624 14.3752 445.214 14.3752C451.843 14.3752 455.09 19.5945 456.141 22.4123L456.714 23.8497L439.637 30.8467C440.935 33.3809 442.961 34.6669 445.825 34.6669C448.691 34.6669 450.677 33.2674 452.11 31.1682ZM438.72 26.611L450.124 21.9208C449.493 20.3514 447.621 19.2357 445.386 19.2357C442.54 19.2357 438.586 21.732 438.72 26.611Z" fill="white" fill-opacity="0.2"/>
<path d="M424.927 1.49686H430.428V38.487H424.927V1.49655V1.49686Z" fill="white" fill-opacity="0.2"/>
<path d="M416.255 15.3586H421.565V37.825C421.565 47.148 416.007 50.987 409.435 50.987C403.246 50.987 399.522 46.8645 398.127 43.5173L402.998 41.5125C403.876 43.5737 405.997 46.0135 409.435 46.0135C413.657 46.0135 416.255 43.4226 416.255 38.5815V36.7661H416.064C414.803 38.2788 412.396 39.6404 409.34 39.6404C402.96 39.6404 397.114 34.1372 397.114 27.0458C397.114 19.9161 402.96 14.3565 409.34 14.3565C412.377 14.3565 414.803 15.6992 416.064 17.1743H416.255V15.3589V15.3586ZM416.637 27.0458C416.637 22.5827 413.638 19.3299 409.817 19.3299C405.959 19.3299 402.711 22.5827 402.711 27.0458C402.711 31.4518 405.959 34.6478 409.817 34.6478C413.638 34.667 416.637 31.4518 416.637 27.0458H416.637Z" fill="white" fill-opacity="0.2"/>
<path d="M366.914 26.9512C366.914 34.232 361.183 39.5837 354.153 39.5837C347.124 39.5837 341.393 34.2132 341.393 26.9512C341.393 19.6327 347.124 14.2998 354.153 14.2998C361.183 14.2998 366.914 19.6327 366.914 26.9512ZM361.336 26.9512C361.336 22.4128 358.012 19.2921 354.153 19.2921C350.295 19.2921 346.971 22.4128 346.971 26.9512C346.971 31.4519 350.295 34.6103 354.153 34.6103C358.012 34.6103 361.336 31.4519 361.336 26.9512Z" fill="white" fill-opacity="0.2"/>
<path d="M394.784 27.0078C394.784 34.2886 389.053 39.6403 382.024 39.6403C374.994 39.6403 369.264 34.2883 369.264 27.0078C369.264 19.6893 374.994 14.3752 382.024 14.3752C389.053 14.3752 394.784 19.6704 394.784 27.0078ZM389.187 27.0078C389.187 22.4694 385.863 19.3487 382.005 19.3487C378.146 19.3487 374.822 22.4694 374.822 27.0078C374.822 31.5085 378.146 34.6669 382.005 34.6669C385.882 34.6669 389.187 31.4897 389.187 27.0078Z" fill="white" fill-opacity="0.2"/>
<path d="M320.419 34.0995C312.415 34.0995 306.15 27.7075 306.15 19.7837C306.15 11.8602 312.415 5.46819 320.419 5.46819C324.736 5.46819 327.888 7.15119 330.218 9.30715L334.058 5.50613C330.811 2.42367 326.474 0.0782776 320.419 0.0782776C309.454 0.0785812 300.228 8.9292 300.228 19.7837C300.228 30.6388 309.454 39.4891 320.419 39.4891C326.341 39.4891 330.811 37.5602 334.306 33.9672C337.897 30.4117 339.005 25.4192 339.005 21.3723C339.005 20.1052 338.853 18.8004 338.681 17.836H320.419V23.0932H333.427C333.045 26.384 331.995 28.6343 330.448 30.1658C328.576 32.0383 325.615 34.0995 320.419 34.0995Z" fill="white" fill-opacity="0.2"/>
</g>
<g clip-path="url(#clip3_43_11)">
<path d="M977.516 21.1961H969.879V22.0002C972.268 22.0002 972.652 22.5082 972.652 25.5149V30.9352C972.652 33.9415 972.268 34.492 969.879 34.492C968.045 34.2382 966.808 33.2638 965.101 31.4008L963.139 29.2839C965.783 28.8175 967.191 27.1666 967.191 25.3032C967.191 22.9749 965.187 21.1965 961.432 21.1965H953.924V22.0002C956.312 22.0002 956.696 22.5082 956.696 25.5149V30.9352C956.696 33.9415 956.312 34.492 953.924 34.492V35.2964H962.413V34.4917C960.024 34.4917 959.641 33.9415 959.641 30.9352V29.411H960.365L965.101 35.2964H977.516C983.617 35.2964 986.262 32.0788 986.262 28.2249C986.262 24.3717 983.617 21.1961 977.516 21.1961ZM959.641 28.0977V22.4665H961.39C963.309 22.4665 964.163 23.779 964.163 25.3036C964.163 26.7856 963.309 28.0977 961.39 28.0977H959.641ZM977.644 33.984H977.345C975.81 33.984 975.597 33.603 975.597 31.655V22.4665H977.644C982.081 22.4665 982.891 25.6841 982.891 28.1827C982.891 30.7656 982.081 33.984 977.644 33.984ZM930.162 29.6652L933.105 21.0265C933.959 18.5283 933.575 17.8089 930.844 17.8089V16.9616H938.865V17.8089C936.177 17.8089 935.538 18.4437 934.471 21.535L929.607 36.0162H929.053L924.7 22.7621L920.263 36.0162H919.709L914.974 21.535C913.95 18.4437 913.267 17.8089 910.793 17.8089V16.9616H920.264V17.8089C917.747 17.8089 917.064 18.4016 917.96 21.0265L920.818 29.6648L925.127 16.9616H925.938L930.162 29.6652ZM944.666 35.8466C939.973 35.8466 936.134 32.4169 936.134 28.2245C936.134 24.0753 939.974 20.6448 944.666 20.6448C949.359 20.6448 953.198 24.0753 953.198 28.2245C953.198 32.4169 949.359 35.8466 944.666 35.8466ZM944.666 21.9584C940.741 21.9584 939.376 25.4724 939.376 28.2249C939.376 31.0202 940.741 34.492 944.666 34.492C948.634 34.492 949.999 31.0202 949.999 28.2249C949.999 25.4724 948.634 21.9584 944.666 21.9584Z" fill="white" fill-opacity="0.2"/>
<path d="M996.799 34.4495V35.2964H987.029V34.4495C989.888 34.4495 990.4 33.7297 990.4 29.4948V22.7207C990.4 18.4854 989.888 17.8085 987.029 17.8085V16.9612H995.86C1000.25 16.9612 1002.69 19.2056 1002.69 22.2123C1002.69 25.1343 1000.25 27.4204 995.86 27.4204H993.428V29.4944C993.428 33.7297 993.94 34.4495 996.799 34.4495ZM995.86 18.4854H993.428V25.8537H995.86C998.249 25.8537 999.359 24.2024 999.359 22.2123C999.359 20.18 998.249 18.4854 995.86 18.4854ZM1031.99 31.3161L1031.78 32.0784C1031.4 33.4755 1030.93 33.9839 1027.9 33.9839H1027.3C1025.08 33.9839 1024.7 33.4755 1024.7 30.4696V28.5216C1028.03 28.5216 1028.28 28.8179 1028.28 31.0202H1029.09V24.7101H1028.28C1028.28 26.912 1028.03 27.2083 1024.7 27.2083V22.4661H1027.05C1030.07 22.4661 1030.54 22.9745 1030.93 24.3716L1031.14 25.1757H1031.82L1031.53 21.1957H1018.98V21.9998C1021.37 21.9998 1021.76 22.5078 1021.76 25.5145V30.9348C1021.76 33.685 1021.43 34.3777 1019.55 34.4766C1017.76 34.2051 1016.53 33.2359 1014.84 31.4004L1012.88 29.2835C1015.53 28.8171 1016.94 27.1662 1016.94 25.3028C1016.94 22.9745 1014.93 21.1961 1011.18 21.1961H1003.67V21.9998C1006.06 21.9998 1006.44 22.5078 1006.44 25.5145V30.9348C1006.44 33.9411 1006.06 34.4916 1003.67 34.4916V35.296H1012.16V34.4913C1009.77 34.4913 1009.38 33.9411 1009.38 30.9348V29.411H1010.11L1014.85 35.2964H1032.38L1032.64 31.3165H1031.99V31.3161ZM1009.38 28.0977V22.4665H1011.13C1013.05 22.4665 1013.91 23.779 1013.91 25.3035C1013.91 26.7856 1013.05 28.0977 1011.13 28.0977H1009.38ZM1040.66 35.8466C1038.95 35.8466 1037.46 34.9576 1036.82 34.4066C1036.6 34.6187 1036.22 35.2539 1036.13 35.8466H1035.32V30.0036H1036.18C1036.52 32.7978 1038.48 34.4495 1041 34.4495C1042.36 34.4495 1043.47 33.6876 1043.47 32.4172C1043.47 31.3165 1042.49 30.4692 1040.74 29.6652L1038.31 28.5219C1036.6 27.7168 1035.32 26.3193 1035.32 24.4566C1035.32 22.4244 1037.24 20.6884 1039.89 20.6884C1041.3 20.6884 1042.49 21.1965 1043.22 21.7892C1043.43 21.6199 1043.64 21.1536 1043.77 20.6452H1044.58V25.6427H1043.68C1043.39 23.6522 1042.28 22.0009 1040.02 22.0009C1038.82 22.0009 1037.71 22.6786 1037.71 23.7376C1037.71 24.8383 1038.61 25.4306 1040.66 26.3625L1043 27.5058C1045.05 28.4794 1045.86 30.0469 1045.86 31.3169C1045.86 33.9843 1043.51 35.847 1040.66 35.847V35.8466ZM1053.79 35.8466C1052.09 35.8466 1050.59 34.9576 1049.96 34.4066C1049.74 34.6187 1049.36 35.2539 1049.27 35.8466H1048.46V30.0036H1049.32C1049.66 32.7978 1051.62 34.4495 1054.14 34.4495C1055.5 34.4495 1056.61 33.6876 1056.61 32.4172C1056.61 31.3165 1055.63 30.4692 1053.88 29.6652L1051.45 28.5219C1049.74 27.7168 1048.46 26.3193 1048.46 24.4566C1048.46 22.4244 1050.38 20.6884 1053.03 20.6884C1054.43 20.6884 1055.63 21.1965 1056.35 21.7892C1056.57 21.6199 1056.78 21.1536 1056.91 20.6452H1057.72V25.6427H1056.82C1056.52 23.6522 1055.42 22.0009 1053.16 22.0009C1051.96 22.0009 1050.85 22.6786 1050.85 23.7376C1050.85 24.8383 1051.75 25.4306 1053.79 26.3625L1056.14 27.5058C1058.19 28.4794 1059 30.0469 1059 31.3169C1059 33.9843 1056.65 35.847 1053.79 35.847V35.8466Z" fill="white" fill-opacity="0.2"/>
<path d="M868.128 25.8432C868.128 33.2608 872.472 39.6705 878.769 42.7083L869.763 18.2169C868.683 20.6166 868.126 23.2155 868.128 25.8436V25.8432ZM899.755 24.8977C899.755 22.5819 898.917 20.978 898.197 19.7294C897.24 18.1861 896.344 16.8788 896.344 15.3355C896.344 13.6127 897.66 12.0091 899.514 12.0091C899.598 12.0091 899.677 12.0197 899.759 12.0242C896.4 8.96974 891.924 7.1052 887.009 7.1052C880.413 7.1052 874.61 10.4639 871.234 15.5517C871.677 15.5645 872.094 15.5739 872.449 15.5739C874.424 15.5739 877.481 15.3358 877.481 15.3358C878.499 15.2764 878.618 16.76 877.602 16.8796C877.602 16.8796 876.579 16.9992 875.441 17.0582L882.316 37.3558L886.448 25.0568L883.507 17.0578C882.49 16.9984 881.527 16.8788 881.527 16.8788C880.509 16.8198 880.629 15.2757 881.646 15.3355C881.646 15.3355 884.764 15.5731 886.619 15.5731C888.593 15.5731 891.651 15.3355 891.651 15.3355C892.669 15.2757 892.789 16.7592 891.772 16.8788C891.772 16.8788 890.747 16.9984 889.611 17.0575L896.434 37.2016L898.317 30.9551C899.133 28.3636 899.755 26.5021 899.755 24.8977ZM887.34 27.4825L881.675 43.82C883.407 44.3263 885.203 44.5834 887.009 44.5834C889.144 44.5841 891.264 44.2249 893.279 43.521C893.226 43.4391 893.181 43.3528 893.144 43.263L887.34 27.4825ZM903.576 16.8529C903.657 17.4497 903.703 18.0902 903.703 18.7799C903.703 20.6813 903.345 22.8188 902.267 25.4916L896.5 42.0412C902.113 38.7923 905.889 32.7568 905.889 25.8439C905.889 22.5857 905.05 19.5222 903.576 16.8529ZM887.009 4C874.874 4 865 13.7988 865 25.8432C865 37.8894 874.874 47.6879 887.009 47.6879C899.144 47.6879 909.019 37.8894 909.019 25.8432C909.019 13.7988 899.144 4 887.009 4ZM887.009 46.6864C875.43 46.6864 866.009 37.3362 866.009 25.8432C866.009 14.3513 875.43 5.00147 887.009 5.00147C898.587 5.00147 908.008 14.3513 908.008 25.8432C908.008 37.3362 898.587 46.6864 887.009 46.6864Z" fill="white" fill-opacity="0.2"/>
</g>
<defs>
<clipPath id="clip0_43_11">
<rect width="193" height="42" fill="white" transform="translate(0 5)"/>
</clipPath>
<clipPath id="clip1_43_11">
<rect width="194" height="49" fill="white" transform="translate(564 1)"/>
</clipPath>
<clipPath id="clip2_43_11">
<rect width="157" height="51" fill="white" transform="translate(300)"/>
</clipPath>
<clipPath id="clip3_43_11">
<rect width="194" height="44" fill="white" transform="translate(865 4)"/>
</clipPath>
</defs>
</svg>
